# File created by Blade
# Date/Time:  Wed Jan 21 16:09:38 2015
# Frame Rate: 120.000 fps
#------------------------------------------------------
:FULLY-SPECIFIED
:DEGREES
775
root 16.949528 35.628735 -22.329287 -173.873203 9.601799 -173.833829
Spine -7.113145 6.074215 6.780542
Head 1.868170 0.288619 2.628315
LeftShoulder -12.719776 -32.769259 19.130978
LeftArm 6.096132 6.277006 -16.798732
LeftForeArm 5.848668 -0.000000 -2.531182
LeftHand -7.692133 -0.000000 6.553309
LeftHandThumb1 -26.253704 0.000000 33.147579
RightShoulder -11.753406 -5.002787 -11.389546
RightArm 10.593923 41.134070 16.681527
RightForeArm -28.664638 -0.000000 5.780308
RightHand -14.059877 0.000000 -6.733117
RightHandThumb1 -24.326973 -0.000000 -32.862282
LeftUpLeg 5.871963 6.760280 6.533313
LeftLeg -14.955867 -0.000000 0.000000
LeftFoot 2.022524 24.961053 10.363715
LeftToeBase -143.304057 -0.000000 0.000000
RightUpLeg -7.839282 -22.318634 -2.380016
RightLeg 6.695773 -0.000000 -0.000000
RightFoot -12.768576 -34.325877 10.193205
RightToeBase 1.543722 -0.000000 -0.000000
776
root 16.916238 35.639002 -22.323635 -173.938295 9.459835 -173.735407
Spine -7.144839 6.106992 6.763356
Head 1.898422 0.131807 2.739017
LeftShoulder -12.574932 -32.856459 19.083307
LeftArm 6.116843 6.404820 -16.694728
LeftForeArm 5.811236 -0.000000 -2.481605
LeftHand -7.687614 0.000000 6.495372
LeftHandThumb1 -26.253704 0.000000 33.147579
RightShoulder -11.751685 -4.924384 -11.339170
RightArm 10.618050 41.146900 16.715079
RightForeArm -28.788474 -0.000000 5.772152
RightHand -14.095292 -0.000000 -6.537498
RightHandThumb1 -24.326973 -0.000000 -32.862282
LeftUpLeg 5.852468 6.524732 6.599692
LeftLeg -14.847282 -0.000000 0.000000
LeftFoot 1.999108 25.054650 10.425497
LeftToeBase -143.255488 -0.000000 0.000000
RightUpLeg -7.373554 -20.307412 -2.590337
RightLeg 6.418571 -0.000000 -0.000000
RightFoot -14.109013 -33.494531 11.026494
RightToeBase 2.215990 -0.000000 -0.000000
777
root 16.885631 35.648807 -22.320764 -174.042953 9.255941 -173.627912
Spine -7.122101 6.062618 6.790624
Head 1.924028 0.040275 2.819310
LeftShoulder -12.498679 -32.904055 19.008281
LeftArm 6.239935 6.475913 -16.584490
LeftForeArm 5.827013 -0.000000 -2.467449
LeftHand -7.664062 -0.000000 6.537865
LeftHandThumb1 -26.253704 0.000000 33.147579
RightShoulder -11.802673 -4.860080 -11.302869
RightArm 10.744768 41.095861 16.788005
RightForeArm -28.769079 -0.000000 5.673824
RightHand -13.943110 -0.000000 -6.490131
RightHandThumb1 -24.326973 -0.000000 -32.862282
LeftUpLeg 5.862827 6.252436 6.683505
LeftLeg -14.743399 -0.000000 0.000000
LeftFoot 2.001418 25.129344 10.527996
LeftToeBase -143.122718 -0.000000 0.000000
RightUpLeg -6.834502 -18.441751 -2.761594
RightLeg 6.051856 -0.000000 -0.000000
RightFoot -15.209055 -32.632110 11.814972
RightToeBase 2.665045 -0.000000 -0.000000
778
root 16.865401 35.658715 -22.320430 -174.136361 9.027717 -173.495370
Spine -7.139521 5.989876 6.832989
Head 1.976352 -0.112608 2.897403
LeftShoulder -12.402587 -32.964143 18.956800
LeftArm 6.319867 6.610796 -16.480125
LeftForeArm 5.808464 -0.000000 -2.428720
LeftHand -7.648590 0.000000 6.577874
LeftHandThumb1 -26.253704 0.000000 33.147579
RightShoulder -11.793972 -4.872503 -11.240089
RightArm 10.766281 41.218707 16.800701
RightForeArm -28.749193 -0.000000 5.649672
RightHand -13.847618 0.000000 -6.305628
RightHandThumb1 -24.326973 -0.000000 -32.862282
LeftUpLeg 5.879253 5.965784 6.805817
LeftLeg -14.664150 -0.000000 0.000000
LeftFoot 2.038912 25.216374 10.648124
LeftToeBase -143.007314 -0.000000 0.000000
RightUpLeg -6.302949 -16.724277 -2.839456
RightLeg 5.617996 -0.000000 -0.000000
RightFoot -16.221553 -31.886903 12.576635
RightToeBase 3.304890 -0.000000 -0.000000
779
root 16.847177 35.667403 -22.319343 -174.198295 8.789515 -173.377318
Spine -7.202684 5.913404 6.854388
Head 2.042486 -0.245463 2.981829
LeftShoulder -12.316234 -32.971389 18.891583
LeftArm 6.437844 6.608896 -16.384567
LeftForeArm 5.930153 0.000000 -2.361765
LeftHand -7.685465 -0.000000 6.639574
LeftHandThumb1 -26.253704 0.000000 33.147579
RightShoulder -11.809130 -4.864601 -11.190015
RightArm 10.830410 41.291777 16.853055
RightForeArm -28.781212 -0.000000 5.619281
RightHand -13.811043 -0.000000 -6.177295
RightHandThumb1 -24.326973 -0.000000 -32.862282
LeftUpLeg 5.863161 5.663252 6.911896
LeftLeg -14.597983 -0.000000 0.000000
LeftFoot 2.070096 25.336711 10.755244
LeftToeBase -142.909326 -0.000000 0.000000
RightUpLeg -5.827715 -15.129240 -2.890480
RightLeg 5.190339 -0.000000 -0.000000
RightFoot -17.095562 -31.000979 13.440745
RightToeBase 3.614551 -0.000000 -0.000000
780
root 16.834386 35.674408 -22.324373 -174.282135 8.497009 -173.263084
Spine -7.263424 5.753203 6.883407
Head 2.095548 -0.346252 3.028980
LeftShoulder -12.291015 -32.989861 18.870690
LeftArm 6.574046 6.691608 -16.295270
LeftForeArm 5.959336 -0.000000 -2.313205
LeftHand -7.673617 -0.000000 6.625939
LeftHandThumb1 -26.253704 0.000000 33.147579
RightShoulder -11.751925 -4.894133 -11.139292
RightArm 10.744961 41.267726 16.762248
RightForeArm -28.665405 -0.000000 5.577606
RightHand -13.750450 -0.000000 -6.032036
RightHandThumb1 -24.326973 -0.000000 -32.862282
LeftUpLeg 5.885531 5.309616 7.030383
LeftLeg -14.569023 -0.000000 0.000000
LeftFoot 2.139544 25.427952 10.866565
LeftToeBase -142.793041 -0.000000 0.000000
RightUpLeg -5.336563 -13.823037 -2.902142
RightLeg 4.774467 -0.000000 -0.000000
RightFoot -17.629226 -29.978105 14.017439
RightToeBase 4.497097 -0.000000 -0.000000
781
root 16.824014 35.680602 -22.329740 -174.345615 8.172605 -173.155491
Spine -7.366171 5.632516 6.909657
Head 2.195134 -0.546396 3.029662
LeftShoulder -12.181621 -33.065594 18.796694
LeftArm 6.687743 6.843102 -16.195689
LeftForeArm 5.997005 -0.000000 -2.250333
LeftHand -7.639275 -0.000000 6.622523
LeftHandThumb1 -26.253704 0.000000 33.147579
RightShoulder -11.756002 -4.774783 -11.184677
RightArm 10.605594 41.136939 16.740093
RightForeArm -28.611858 -0.000000 5.568869
RightHand -13.611241 -0.000000 -5.930435
RightHandThumb1 -24.326973 -0.000000 -32.862282
LeftUpLeg 5.888028 4.929867 7.151171
LeftLeg -14.548109 -0.000000 0.000000
LeftFoot 2.162867 25.471626 10.935867
LeftToeBase -142.680407 -0.000000 0.000000
RightUpLeg -4.892504 -12.735304 -2.880194
RightLeg 4.367318 -0.000000 -0.000000
RightFoot -17.959054 -28.909874 14.746655
RightToeBase 5.666176 -0.000000 -0.000000
782
root 16.819670 35.686260 -22.333298 -174.393531 7.796900 -173.041816
Spine -7.477885 5.377295 6.944550
Head 2.264382 -0.657977 3.050639
LeftShoulder -12.227242 -33.016943 18.759745
LeftArm 6.963243 6.863842 -16.092194
LeftForeArm 6.082552 -0.000000 -2.278972
LeftHand -7.609345 -0.000000 6.708455
LeftHandThumb1 -26.253704 0.000000 33.147579
RightShoulder -11.719620 -4.720686 -11.106717
RightArm 10.555126 41.090258 16.615238
RightForeArm -28.594060 -0.000000 5.520176
RightHand -13.654558 -0.000000 -5.809262
RightHandThumb1 -24.326973 -0.000000 -32.862282
LeftUpLeg 5.868406 4.484196 7.295526
LeftLeg -14.538766 -0.000000 0.000000
LeftFoot 2.217773 25.520484 11.029748
LeftToeBase -142.522605 -0.000000 0.000000
RightUpLeg -4.492092 -11.870111 -2.796774
RightLeg 3.994483 -0.000000 -0.000000
RightFoot -18.122101 -27.885489 15.553078
RightToeBase 6.329251 -0.000000 -0.000000
783
root 16.816059 35.690024 -22.336315 -174.419424 7.393339 -172.945350
Spine -7.616890 5.162577 6.962913
Head 2.296368 -0.838499 3.047876
LeftShoulder -12.232984 -33.025380 18.734547
LeftArm 7.191919 6.873811 -16.033987
LeftForeArm 6.162066 -0.000000 -2.237903
LeftHand -7.520466 -0.000000 6.672544
LeftHandThumb1 -26.253704 0.000000 33.147579
RightShoulder -11.748504 -4.693888 -11.027876
RightArm 10.509775 40.945935 16.437897
RightForeArm -28.388624 -0.000000 5.341305
RightHand -13.515411 -0.000000 -5.821614
RightHandThumb1 -24.326973 -0.000000 -32.862282
LeftUpLeg 5.820957 4.054878 7.421974
LeftLeg -14.549006 -0.000000 0.000000
LeftFoot 2.266486 25.552271 11.126475
LeftToeBase -142.461161 -0.000000 0.000000
RightUpLeg -4.120884 -11.109789 -2.715173
RightLeg 3.634578 -0.000000 -0.000000
RightFoot -18.083568 -26.927187 16.254273
RightToeBase 6.863515 -0.000000 -0.000000
784
root 16.811579 35.691808 -22.337208 -174.409380 7.042473 -172.910327
Spine -7.801362 4.989751 6.906714
Head 2.338001 -0.985339 3.032791
LeftShoulder -12.225699 -33.053816 18.702036
LeftArm 7.398277 7.039955 -15.929153
LeftForeArm 6.037366 -0.000000 -2.187125
LeftHand -7.465939 0.000000 6.655572
LeftHandThumb1 -26.253704 0.000000 33.147579
RightShoulder -11.758865 -4.717015 -10.966078
RightArm 10.393185 41.077938 16.356623
RightForeArm -28.471553 0.000000 5.449172
RightHand -13.621675 0.000000 -5.739216
RightHandThumb1 -24.326973 -0.000000 -32.862282
LeftUpLeg 5.736226 3.680250 7.479468
LeftLeg -14.555371 -0.000000 0.000000
LeftFoot 2.307929 25.582777 11.180206
LeftToeBase -142.404980 -0.000000 0.000000
RightUpLeg -3.879529 -10.516501 -2.669762
RightLeg 3.410084 -0.000000 -0.000000
RightFoot -17.965606 -25.836877 17.013887
RightToeBase 7.447035 -0.000000 -0.000000
785
root 16.809534 35.692592 -22.337241 -174.388270 6.638907 -172.893545
Spine -8.020427 4.794566 6.823999
Head 2.432865 -1.162120 3.004585
LeftShoulder -12.195117 -33.009838 18.639009
LeftArm 7.702353 7.079668 -15.846165
LeftForeArm 6.134439 -0.000000 -2.220780
LeftHand -7.473789 0.000000 6.765399
LeftHandThumb1 -26.253704 0.000000 33.147579
RightShoulder -11.698668 -4.570821 -10.977918
RightArm 10.000923 40.921117 16.139807
RightForeArm -28.530476 -0.000000 5.548524
RightHand -13.630748 -0.000000 -5.748595
RightHandThumb1 -24.326973 -0.000000 -32.862282
LeftUpLeg 5.624973 3.335055 7.528956
LeftLeg -14.565662 -0.000000 0.000000
LeftFoot 2.348800 25.506539 11.246914
LeftToeBase -142.400735 -0.000000 0.000000
RightUpLeg -3.653803 -10.042539 -2.632954
RightLeg 3.216088 -0.000000 -0.000000
RightFoot -17.713435 -24.702529 17.657054
RightToeBase 7.910725 -0.000000 -0.000000
786
root 16.808296 35.691537 -22.335882 -174.365951 6.260534 -172.897224
Spine -8.213843 4.605907 6.725574
Head 2.442314 -1.326200 2.994785
LeftShoulder -12.161810 -33.089915 18.597753
LeftArm 7.863094 7.161546 -15.746842
LeftForeArm 6.211179 -0.000000 -2.110360
LeftHand -7.530399 -0.000000 6.810658
LeftHandThumb1 -26.253704 0.000000 33.147579
RightShoulder -11.731548 -4.504129 -10.910340
RightArm 9.851695 40.914367 15.996509
RightForeArm -28.527167 -0.000000 5.581963
RightHand -13.692482 -0.000000 -5.820648
RightHandThumb1 -24.326973 -0.000000 -32.862282
LeftUpLeg 5.502998 3.017515 7.561150
LeftLeg -14.554207 -0.000000 0.000000
LeftFoot 2.338802 25.432013 11.296072
LeftToeBase -142.340824 -0.000000 0.000000
RightUpLeg -3.454626 -9.595079 -2.613286
RightLeg 3.068450 -0.000000 -0.000000
RightFoot -17.338404 -23.513582 18.131237
RightToeBase 8.407524 -0.000000 -0.000000
